<svg width="228" height="151" viewBox="0 0 228 151" fill="none" xmlns="http://www.w3.org/2000/svg">
<g clip-path="url(#clip0_2441_4819)">
<path d="M181.396 90.5471C181.988 107.964 143.606 144.239 97.7577 132.115C76.4338 126.475 78.5136 116.302 62.5227 103.302C52.9915 95.5533 39.1574 89.8377 35.564 78.3521C32.4594 68.4382 34.7962 57.6596 40.8026 50.5515C54.3106 34.5656 81.0427 23.2401 106.475 47.4145C131.907 71.5886 179.863 45.6264 181.396 90.5471Z" fill="url(#paint0_linear_2441_4819)"/>
<path fill-rule="evenodd" clip-rule="evenodd" d="M158.925 52.1721V39.2983C158.925 32.1885 153.148 26.4248 146.022 26.4248H81.5123C74.3867 26.4248 68.6104 32.1885 68.6104 39.2983V71.4824" fill="white"/>
<path d="M158.925 52.1721V39.2983C158.925 32.1885 153.148 26.4248 146.022 26.4248H81.5123C74.3867 26.4248 68.6104 32.1885 68.6104 39.2983V71.4824" stroke="#E1E4E5" stroke-width="4.13"/>
<path fill-rule="evenodd" clip-rule="evenodd" d="M68.6104 54.4232H110.316C111.378 54.4233 112.423 54.1619 113.36 53.6623C114.296 53.1626 115.094 52.44 115.683 51.5587L124.734 37.9836C125.325 37.0983 126.125 36.3728 127.065 35.8718C128.005 35.3709 129.055 35.1101 130.121 35.1128H158.925C166.05 35.1128 171.827 40.8765 171.827 47.9863V112.354C171.827 119.464 166.05 125.228 158.925 125.228H68.6104C61.4849 125.228 55.7083 119.464 55.7083 112.354V67.2967C55.7083 60.1869 61.4849 54.4232 68.6104 54.4232Z" fill="white" stroke="#E1E4E5" stroke-width="4.13"/>
<path fill-rule="evenodd" clip-rule="evenodd" d="M80.8417 108.724V109.722H81.8415C82.0429 109.723 82.2358 109.804 82.3782 109.946C82.5206 110.088 82.6009 110.281 82.6017 110.482C82.6009 110.682 82.5206 110.875 82.3782 111.017C82.2358 111.159 82.0429 111.24 81.8415 111.241H80.8417V112.239C80.8409 112.44 80.7606 112.633 80.6182 112.775C80.4758 112.917 80.2829 112.997 80.0815 112.998C79.8801 112.997 79.6872 112.917 79.5449 112.775C79.4025 112.633 79.3221 112.44 79.3213 112.239V111.245H78.3174C78.116 111.244 77.9231 111.163 77.7807 111.021C77.6384 110.879 77.558 110.687 77.5572 110.486C77.5581 110.285 77.6385 110.092 77.7808 109.95C77.9232 109.808 78.116 109.727 78.3174 109.727H79.3173V108.724C79.3183 108.522 79.3992 108.329 79.5424 108.187C79.6856 108.045 79.8794 107.965 80.0815 107.965C80.2829 107.966 80.4758 108.046 80.6182 108.188C80.7606 108.33 80.8409 108.523 80.8417 108.724ZM72.483 101.729V103.127H73.9328C74.5379 103.127 75.035 103.606 75.035 104.19C75.035 104.773 74.5379 105.253 73.9328 105.253H72.483V106.65C72.483 107.234 71.9859 107.713 71.3808 107.713C70.7757 107.713 70.2786 107.234 70.2786 106.65V105.258H68.8228C68.2177 105.258 67.7206 104.779 67.7206 104.196C67.7206 103.612 68.2177 103.133 68.8228 103.133H70.2726V101.729C70.2726 101.146 70.7697 100.667 71.3808 100.667C71.9859 100.667 72.483 101.146 72.483 101.729Z" fill="#E1E4E5"/>
<path d="M113.903 115.06C127.679 115.06 138.847 103.917 138.847 90.1708C138.847 76.4247 127.679 65.2812 113.903 65.2812C100.126 65.2812 88.9581 76.4247 88.9581 90.1708C88.9581 103.917 100.126 115.06 113.903 115.06Z" fill="#4553DD"/>
<path d="M115.658 82.8954C115.658 81.9281 114.872 81.144 113.903 81.144C112.933 81.144 112.147 81.9281 112.147 82.8954V97.4457C112.147 98.413 112.933 99.1971 113.903 99.1971C114.872 99.1971 115.658 98.413 115.658 97.4457V82.8954Z" fill="white"/>
<path d="M121.194 91.9221C122.163 91.9221 122.949 91.138 122.949 90.1708C122.949 89.2035 122.163 88.4194 121.194 88.4194H106.612C105.642 88.4194 104.856 89.2035 104.856 90.1708C104.856 91.138 105.642 91.9221 106.612 91.9221H121.194Z" fill="white"/>
<path d="M181.278 123.921C179.339 123.921 177.768 122.428 177.768 120.586C177.768 118.743 179.339 117.25 181.278 117.25C183.216 117.25 184.788 118.743 184.788 120.586C184.788 122.428 183.216 123.921 181.278 123.921Z" fill="#E1E4E5"/>
<path d="M73.8912 131.979C73.245 131.979 72.7212 131.457 72.7212 130.812C72.7212 130.167 73.245 129.645 73.8912 129.645C74.5374 129.645 75.0613 130.167 75.0613 130.812C75.0613 131.457 74.5374 131.979 73.8912 131.979Z" fill="#E1E4E5"/>
<path d="M142.983 53.4933C142.06 53.4933 141.312 52.7466 141.312 51.8255C141.312 50.9044 142.06 50.1577 142.983 50.1577C143.907 50.1577 144.655 50.9044 144.655 51.8255C144.655 52.7466 143.907 53.4933 142.983 53.4933Z" fill="#E1E4E5"/>
<path d="M44.4345 102.119C44.668 102.988 44.1509 103.882 43.2796 104.115C42.4082 104.348 41.5126 103.832 41.2791 102.962C41.0456 102.093 41.5627 101.199 42.4341 100.966C43.3054 100.733 44.2011 101.249 44.4345 102.119Z" fill="#E1E4E5"/>
<path d="M54.8971 31.0389C53.697 31.0389 52.7242 30.0682 52.7242 28.8707C52.7242 27.6733 53.697 26.7026 54.8971 26.7026C56.0971 26.7026 57.0699 27.6733 57.0699 28.8707C57.0699 30.0682 56.0971 31.0389 54.8971 31.0389Z" fill="#E1E4E5"/>
<path d="M177.819 60.1013C176.896 60.1013 176.147 59.5039 176.147 58.767C176.147 58.03 176.896 57.4326 177.819 57.4326C178.742 57.4326 179.49 58.03 179.49 58.767C179.49 59.5039 178.742 60.1013 177.819 60.1013Z" fill="#E1E4E5"/>
<path d="M47.083 114.825H47.1269C47.3857 118.486 50.1142 118.542 50.1142 118.542C50.1142 118.542 47.1054 118.601 47.1054 122.831C47.1054 118.601 44.0967 118.542 44.0967 118.542C44.0967 118.542 46.8242 118.486 47.083 114.825ZM191.943 73.061H191.988C192.257 76.9266 195.093 76.986 195.093 76.986C195.093 76.986 191.966 77.0479 191.966 81.5145C191.966 77.0479 188.839 76.986 188.839 76.986C188.839 76.986 191.674 76.9266 191.943 73.061Z" fill="#E1E4E5"/>
</g>
<defs>
<linearGradient id="paint0_linear_2441_4819" x1="133.925" y1="196.057" x2="70.3626" y2="-89.9845" gradientUnits="userSpaceOnUse">
<stop stop-color="white"/>
<stop offset="1" stop-color="#EEEEEE"/>
</linearGradient>
<clipPath id="clip0_2441_4819">
<rect width="227" height="151" fill="white" transform="translate(0.125)"/>
</clipPath>
</defs>
</svg>
