<svg width="361" height="258" viewBox="0 0 361 258" fill="none" xmlns="http://www.w3.org/2000/svg">
<path d="M28 252.284H336" stroke="#E1E4E5" stroke-width="4"/>
<path d="M172 87.3532C169.799 90.7686 164.048 94.7487 159.969 94.6942C146.074 94.4425 141.5 85.0804 140 81.6717C140.282 81.6038 140.757 81.5494 141.094 81.5083C143.652 81.141 146.267 78.6374 147.03 75.8139C148.014 72.1395 149.225 64.9547 149.08 60.3895L166.655 70.01C166.628 71.3299 166.538 72.7725 166.414 74.2284C166.329 75.0957 166.235 75.9621 166.132 76.8275C166.039 77.5909 165.936 78.353 165.823 79.1137C165.5 81.4949 166.573 83.8556 168.602 85.1688L172 87.3532Z" fill="#F8AE9D"/>
<path d="M173.533 50.594C172.6 53.1083 172.992 55.9635 173.938 58.4704C174.606 60.2421 176.093 58.6792 177.944 58.7138C180.808 58.7626 183.044 55.6991 184.774 47.5798C185.875 41.6203 186.152 38.5988 185.929 38.0224C185.139 35.9592 182.531 34.8547 180.382 34.6606" fill="#2F3462"/>
<path d="M177.664 33.901C182.043 39.3296 183.637 54.6039 179.939 65.245C177.309 72.8112 174.254 77.6938 170.686 77.5385C165.27 77.3023 154.772 72.7236 151.356 68.9C145.198 62.0147 146.989 48.5144 148.261 40.0175C149.415 32.296 152.929 22.2685 162.365 24.1769C168.569 25.4245 173.736 29.0255 177.664 33.901Z" fill="#F8AE9D"/>
<path d="M151.616 39.0071C152.631 40.29 154.42 40.573 155.894 40.8264C157.875 41.1674 158.856 41.8778 159.884 43.7842C160.535 45.0015 161.187 46.3353 162.352 46.9949C163.299 47.5333 163.263 46.1582 163.416 45.0926C163.43 44.9997 163.449 44.9076 163.474 44.8168C163.704 43.9664 164.625 44.1124 164.896 44.9511C165.142 45.7048 165.67 46.3425 166.342 46.6977C166.452 46.7557 166.568 46.8066 166.685 46.7847C166.842 46.7633 166.966 46.6183 167.069 46.4875C167.285 46.2137 167.499 45.8661 167.721 45.4977C168.448 44.289 169.821 44.7236 170.634 45.8788C171.141 46.5964 171.744 47.3358 172.574 47.5023C172.841 47.5603 173.177 47.517 173.301 47.2631C173.459 46.9516 173.211 46.6397 173.253 46.3211C173.287 46.0239 173.417 45.8931 173.561 45.6397C174.127 44.6534 175.417 44.6183 176.213 45.4366C176.766 46.0055 177.343 46.552 177.942 47.0748C178.196 47.2921 178.566 47.5099 178.819 47.2921C178.956 47.176 178.991 46.9806 179.018 46.7918C179.162 45.8717 179.299 44.9511 179.443 44.0305C179.525 43.516 179.807 42.8417 180.287 42.972C180.519 43.0376 180.657 43.2768 180.787 43.4941C180.945 43.7694 183.762 46.9079 183.817 46.6687C184.256 44.886 185.154 43.262 185.593 41.4788C188.431 30.0045 175.837 20.7776 166.219 20.7267C164.08 20.7119 162.126 20.746 160.048 21.232C157.834 21.7536 155.496 22.5821 153.487 23.7491C150.67 25.3801 148.538 28.3445 149.087 31.8819" fill="#974E3E"/>
<path d="M157.074 36.201C158.429 37.749 158.787 39.9271 158.914 41.9847C159.1 45.0878 158.847 48.3114 157.426 51.0658C157.021 51.8497 156.722 55.7301 156.098 55.5156C155.899 55.4488 155.932 52.4398 155.407 50.8179C154.597 48.3043 150.864 47.3463 149.184 48.9343C146.501 51.4611 148.075 54.5308 148.965 56.4406C149.496 57.5934 150.34 58.8869 150.486 60.1065C150.665 61.6682 150.718 67.3582 149.709 68.6851C148.866 69.7974 147.969 64.4226 147.205 63.3639C141.553 55.4756 136.134 35.3898 145.784 31.0337C147.252 30.3703 151.781 30.0282 153.156 30.8728M192.805 195.867C193.363 195.961 193.927 196.042 194.512 196.062C197.62 196.162 200.622 195.472 203.656 194.949C206.326 194.487 207.05 194.232 206.997 190.982C206.532 165.24 202.78 139.565 196.033 114.734C195.003 110.941 193.881 107.12 191.908 103.729C188.541 97.9456 180.811 92.9529 174.88 90.1514C174.043 89.7557 170.577 91.9808 169.733 91.5987C168.996 91.2637 168.345 90.7409 167.601 90.4125C165.423 89.4541 163.962 91.458 162.142 92.2961C161.199 92.7247 160.149 92.9995 159.113 92.9529C158.27 92.919 157.506 92.4033 156.736 92.8051C153.269 94.6148 144.662 81.1841 144.662 81.1841L140.923 85.1045L130.011 96.6385L102.742 134.552C102.742 134.552 97.794 165.622 94.394 185.989C93.8028 189.5 91.4649 197.094 91 199.755C91.0998 199.178 114.278 199.024 115.526 199.024H162.766C165.416 199.024 172.542 200.156 174.402 198.193C176.693 195.78 179.343 184.709 179.482 181.605C179.941 171.171 179.23 160.816 179.091 150.321C179.15 154.59 180.365 158.45 180.883 162.632C181.554 168.014 182.511 173.389 183.374 178.744C184.065 183.047 184.729 187.362 185.26 191.692C185.499 193.642 185.194 194.802 186.827 195.566C188.202 196.203 191.198 195.592 192.805 195.867Z" fill="#974E3E"/>
<path d="M154.497 175.098C154.497 175.098 159.41 177.823 158.972 183.614C158.535 189.406 156.758 196.12 149.341 195.415C141.925 194.718 154.497 175.098 154.497 175.098Z" fill="#2F3462"/>
<path d="M130.656 120.424C130.67 124.057 130.146 127.696 129.167 131.218C128.181 134.74 126.739 138.136 125.066 141.408C124.23 143.043 123.339 144.647 122.421 146.23C121.517 147.82 120.585 149.397 119.823 151.013C119.449 151.821 119.123 152.655 118.993 153.477C118.96 153.877 118.926 154.291 119.041 154.639C119.068 154.83 119.184 154.974 119.252 155.145C119.381 155.296 119.469 155.46 119.633 155.605C120.85 156.781 122.591 157.576 124.243 158.345C131.03 161.334 138.238 163.548 145.107 166.531C148.541 168.022 151.941 169.632 155.103 171.642L155.688 172.023C155.885 172.154 156.069 172.325 156.26 172.476C156.61 172.805 156.914 173.176 157.164 173.58C157.667 174.375 158.007 175.243 158.272 176.123C158.776 177.89 158.986 179.71 159 181.53C158.877 179.723 158.565 177.916 158.014 176.201C157.429 174.5 156.525 172.845 154.832 172.049C151.656 170.144 148.249 168.626 144.794 167.227C141.333 165.847 137.831 164.54 134.315 163.272C130.799 161.984 127.263 160.756 123.808 159.232C122.108 158.417 120.36 157.649 118.912 156.236C118.728 156.065 118.579 155.828 118.422 155.625C118.307 155.375 118.15 155.139 118.11 154.876C117.946 154.35 118.001 153.831 118.049 153.339C118.211 152.366 118.579 151.486 118.973 150.645C119.783 148.963 120.727 147.393 121.646 145.81C122.564 144.226 123.488 142.656 124.366 141.06C127.868 134.7 130.302 127.703 130.656 120.424Z" fill="white"/>
<path d="M176 90.0823C174.301 91.6926 166.736 96.8388 159.523 96.8388C158.322 96.8388 157.055 96.7357 155.713 96.4974C149.659 95.4415 144.562 91.5832 141.583 87.1646C141.039 86.3514 140.559 85.5009 140.146 84.6199C139.607 83.5125 139.222 82.3787 139 81.2834C142.034 80.9294 144.933 80.2013 145.405 79.6862C145.917 83.0616 150.28 89.1548 156.886 90.3011C157.716 90.4495 158.498 90.5137 159.246 90.5268H159.26C162.361 90.5784 164.741 89.6314 166.366 88.6781C166.379 88.6781 169.528 86.3076 169.541 86.2949L176 90.0823Z" fill="#2F3462"/>
<path d="M179.904 166.444C179.886 166.114 179.926 165.788 179.915 165.458C179.903 165.102 179.865 164.753 179.84 164.397L179.656 162.357C179.539 160.969 179.421 159.579 179.322 158.189C179.126 155.435 178.993 152.671 178.923 149.91C178.789 144.387 178.864 138.852 179.213 133.341C179.309 131.797 179.43 130.259 179.564 128.72C179.636 127.933 179.714 127.139 179.793 126.352C179.873 125.578 179.99 124.809 180 124.026C180.006 123.54 179.32 123.507 179.217 123.959C178.914 125.298 178.87 126.738 178.74 128.108C178.616 129.485 178.505 130.863 178.407 132.242C178.219 135.025 178.094 137.812 178.032 140.602C177.92 146.153 178.106 151.706 178.55 157.244C178.677 158.801 178.822 160.35 178.999 161.898C179.091 162.688 179.184 163.472 179.295 164.261C179.345 164.609 179.388 164.957 179.451 165.297C179.529 165.697 179.669 166.066 179.747 166.466C179.79 166.558 179.915 166.524 179.904 166.444Z" fill="white"/>
<path d="M299.473 252.284H64.5272C57.4901 252.284 52 247.223 52 241.236V110.031C52 104.044 57.4901 98.9829 64.5272 98.9829H299.473C306.51 98.9829 312 104.044 312 110.031V241.236C312 247.223 306.51 252.284 299.473 252.284Z" fill="white" stroke="#E1E4E5" stroke-width="4"/>
<path d="M312 115.063H52V111.233C52 104.469 57.6104 98.9829 64.5281 98.9829H299.472C306.39 98.9829 312 104.469 312 111.233V115.063Z" fill="white" stroke="#E1E4E5" stroke-width="4"/>
<path d="M63.951 109.703C64.7336 109.703 65.4842 109.477 66.0376 109.075C66.591 108.673 66.9019 108.128 66.9019 107.559C66.9019 106.991 66.591 106.446 66.0376 106.044C65.4842 105.642 64.7336 105.416 63.951 105.416C63.1683 105.416 62.4177 105.642 61.8643 106.044C61.3109 106.446 61 106.991 61 107.559C61 108.128 61.3109 108.673 61.8643 109.075C62.4177 109.477 63.1683 109.703 63.951 109.703ZM76.2462 109.703C76.637 109.707 77.025 109.654 77.3875 109.548C77.7501 109.442 78.08 109.285 78.3582 109.085C78.6363 108.886 78.8572 108.648 79.0079 108.386C79.1586 108.124 79.2362 107.843 79.2362 107.559C79.2362 107.275 79.1585 106.994 79.0077 106.732C78.8569 106.47 78.636 106.233 78.3578 106.033C78.0796 105.834 77.7496 105.676 77.387 105.57C77.0245 105.464 76.6365 105.412 76.2457 105.415C75.4697 105.423 74.729 105.652 74.1839 106.053C73.6388 106.455 73.3332 106.996 73.3332 107.559C73.3333 108.123 73.639 108.664 74.1842 109.065C74.7294 109.467 75.4702 109.696 76.2462 109.703ZM88.0495 109.703C88.4371 109.703 88.8208 109.648 89.1788 109.54C89.5368 109.432 89.8621 109.274 90.136 109.075C90.41 108.876 90.6273 108.64 90.7756 108.379C90.9238 108.119 91.0001 107.841 91 107.559C90.9999 107.278 90.9235 106.999 90.7752 106.739C90.6268 106.479 90.4094 106.242 90.1353 106.043C89.8612 105.844 89.5359 105.686 89.1778 105.579C88.8198 105.471 88.4361 105.416 88.0485 105.416C87.2659 105.416 86.5153 105.642 85.962 106.044C85.4087 106.446 85.0979 106.991 85.0981 107.56C85.0982 108.128 85.4092 108.674 85.9628 109.076C86.5163 109.477 87.2669 109.703 88.0495 109.703Z" fill="#E1E4E5"/>
<path d="M110.901 132.216H83.0989C78.0737 132.216 74 136.248 74 141.221V168.237C74 173.21 78.0737 177.242 83.0989 177.242H110.901C115.926 177.242 120 173.21 120 168.237V141.221C120 136.248 115.926 132.216 110.901 132.216Z" fill="white" stroke="#E1E4E5" stroke-width="4"/>
<path d="M110.901 186.89H83.0989C78.0737 186.89 74 190.922 74 195.895V222.911C74 227.884 78.0737 231.916 83.0989 231.916H110.901C115.926 231.916 120 227.884 120 222.911V195.895C120 190.922 115.926 186.89 110.901 186.89Z" fill="white" stroke="#E1E4E5" stroke-width="4"/>
<path d="M165.901 132.216H138.099C133.074 132.216 129 136.248 129 141.221V168.237C129 173.21 133.074 177.242 138.099 177.242H165.901C170.926 177.242 175 173.21 175 168.237V141.221C175 136.248 170.926 132.216 165.901 132.216Z" fill="white" stroke="#E1E4E5" stroke-width="4"/>
<path d="M165.901 186.89H138.099C133.074 186.89 129 190.922 129 195.895V222.911C129 227.884 133.074 231.916 138.099 231.916H165.901C170.926 231.916 175 227.884 175 222.911V195.895C175 190.922 170.926 186.89 165.901 186.89Z" fill="white" stroke="#E1E4E5" stroke-width="4"/>
<path d="M220.099 132.216H192.901C187.985 132.216 184 136.248 184 141.221V168.237C184 173.21 187.985 177.242 192.901 177.242H220.099C225.015 177.242 229 173.21 229 168.237V141.221C229 136.248 225.015 132.216 220.099 132.216Z" fill="white" stroke="#E1E4E5" stroke-width="4"/>
<path d="M274.901 132.216H247.099C242.074 132.216 238 136.248 238 141.221V168.237C238 173.21 242.074 177.242 247.099 177.242H274.901C279.926 177.242 284 173.21 284 168.237V141.221C284 136.248 279.926 132.216 274.901 132.216Z" fill="white" stroke="#E1E4E5" stroke-width="4"/>
<path d="M219.895 186.89H192.105C186.524 186.89 182 191.281 182 196.698V223.18C182 228.597 186.524 232.988 192.105 232.988H219.895C225.476 232.988 230 228.597 230 223.18V196.698C230 191.281 225.476 186.89 219.895 186.89Z" fill="#4553DD"/>
<path d="M274.901 186.89H247.099C242.074 186.89 238 190.922 238 195.895V222.911C238 227.884 242.074 231.916 247.099 231.916H274.901C279.926 231.916 284 227.884 284 222.911V195.895C284 190.922 279.926 186.89 274.901 186.89Z" fill="white" stroke="#E1E4E5" stroke-width="4"/>
<path d="M140.018 177.474C140.018 177.474 149.583 178.894 154.252 176.977C158.872 175.081 169.753 167.82 180.172 166.525C180.27 166.512 180.368 166.534 180.451 166.587C180.534 166.639 180.597 166.72 180.627 166.814C180.844 167.502 180.961 169.168 177.871 170.798C173.845 172.913 170.804 174.613 170.804 174.613C170.804 174.613 189.758 179.613 194.794 181.353C195.788 181.696 196.549 182.084 197.138 182.498C198.972 183.787 197.628 186.687 195.456 186.146L182.746 182.984C182.746 182.984 183.843 184 183.421 185.273C183.019 186.475 180.716 187.282 178.753 186.67C178.753 186.67 179.89 187.916 178.888 189.344C177.887 190.772 175.466 190.72 174.299 190.452C174.299 190.452 175.639 191.403 175.212 192.641C174.785 193.879 172.112 194.47 171.255 194.387C170.4 194.303 163.178 194.865 152.667 190.782L138.509 194.022C138.509 194.022 134.262 190.52 140.018 177.474Z" fill="#F8AE9D"/>
<path d="M150.785 196.163C133.115 202.345 109.472 196.44 94.4836 186.174C85.0932 179.757 79.1006 171.607 80.1107 163.647C82.7257 142.967 98.851 95.5673 112.803 88.6514C122.287 83.9465 133.79 81.9986 140.205 81.2163C143.214 80.8458 145.094 80.7583 145.094 80.7583L142.766 87.3775L131.115 120.487C130.681 140.136 116.729 151.804 119.504 156.38C122.28 160.944 144.197 165.871 155.708 173.683C158.892 175.854 162.931 191.553 150.785 196.163Z" fill="#974E3E"/>
<path d="M313.771 110.485C306.592 112.13 299 106.244 299 106.244C299 106.244 303.052 97.6961 310.232 96.0568C317.41 94.413 325 100.293 325 100.293C325 100.293 320.948 108.842 313.771 110.485Z" fill="url(#paint0_linear_263_5500)"/>
<path d="M109.159 61.9995C116.612 66.9726 128 63.496 128 63.496C128 63.496 127.295 51.9575 119.836 46.9894C112.382 42.0158 101 45.4875 101 45.4875C101 45.4875 101.705 57.0259 109.159 61.9995Z" fill="url(#paint1_linear_263_5500)"/>
<path d="M250.362 77.3473C258.521 85.5522 273.779 83.8222 273.779 83.8222C273.779 83.8222 275.798 68.7887 267.631 60.5884C259.472 52.3835 244.221 54.1084 244.221 54.1084C244.221 54.1084 242.202 69.1419 250.362 77.3473Z" fill="url(#paint2_linear_263_5500)"/>
<path d="M295.5 175.098C292.462 175.098 290 177.737 290 180.994C290 184.25 292.462 186.89 295.5 186.89C298.538 186.89 301 184.25 301 180.994C301 177.737 298.538 175.098 295.5 175.098Z" fill="#4553DD"/>
<path d="M75 202.971C70.5817 202.971 67 206.57 67 211.011C67 215.451 70.5817 219.051 75 219.051C79.4183 219.051 83 215.451 83 211.011C83 206.57 79.4183 202.971 75 202.971Z" fill="#4553DD"/>
<path d="M30 144.009C28.3431 144.009 27 142.809 27 141.328C27 139.848 28.3431 138.648 30 138.648C31.6569 138.648 33 139.848 33 141.328C33 142.809 31.6569 144.009 30 144.009Z" fill="#4553DD"/>
<path d="M295 77.5421C292.239 77.5421 290 75.1423 290 72.182C290 69.2216 292.239 66.8218 295 66.8218C297.761 66.8218 300 69.2216 300 72.182C300 75.1423 297.761 77.5421 295 77.5421Z" fill="#4553DD"/>
<path d="M295 242.636C292.239 242.636 290 240.236 290 237.276C290 234.316 292.239 231.916 295 231.916C297.761 231.916 300 234.316 300 237.276C300 240.236 297.761 242.636 295 242.636Z" fill="#E1E4E5"/>
<path d="M64 181.53C62.3431 181.53 61 180.09 61 178.314C61 176.538 62.3431 175.098 64 175.098C65.6569 175.098 67 176.538 67 178.314C67 180.09 65.6569 181.53 64 181.53Z" fill="#E1E4E5"/>
<path d="M126.5 243.708C125.672 243.708 125 242.988 125 242.1C125 241.212 125.672 240.492 126.5 240.492C127.328 240.492 128 241.212 128 242.1C128 242.988 127.328 243.708 126.5 243.708Z" fill="#E1E4E5"/>
<path d="M238.5 52.8853C237.119 52.8853 236 51.4454 236 49.6691C236 47.8929 237.119 46.453 238.5 46.453C239.881 46.453 241 47.8929 241 49.6691C241 51.4454 239.881 52.8853 238.5 52.8853Z" fill="#E1E4E5"/>
<path d="M31.0033 201.324C31.3632 202.674 30.5661 204.061 29.2228 204.422C27.8796 204.784 26.4989 203.983 26.139 202.634C25.7791 201.284 26.5762 199.897 27.9195 199.536C29.2627 199.174 30.6434 199.975 31.0033 201.324Z" fill="#E1E4E5"/>
<path d="M73 83.9744C71.3431 83.9744 70 82.5345 70 80.7583C70 78.9821 71.3431 77.5422 73 77.5422C74.6569 77.5422 76 78.9821 76 80.7583C76 82.5345 74.6569 83.9744 73 83.9744Z" fill="#E1E4E5"/>
<path d="M298 135.432C296.895 135.432 296 134.472 296 133.288C296 132.104 296.895 131.144 298 131.144C299.105 131.144 300 132.104 300 133.288C300 134.472 299.105 135.432 298 135.432Z" fill="#E1E4E5"/>
<path d="M223.686 79.08C224.435 81.8881 222.776 84.7745 219.981 85.5269C217.186 86.2793 214.313 84.6129 213.564 81.8048C212.815 78.9967 214.473 76.1103 217.269 75.3579C220.064 74.6054 222.937 76.2719 223.686 79.08Z" fill="#E1E4E5"/>
<path d="M326.306 141.407H326.374C326.775 147.008 331 147.094 331 147.094C331 147.094 326.341 147.184 326.341 153.657C326.341 147.184 321.682 147.094 321.682 147.094C321.682 147.094 325.905 147.008 326.306 141.407ZM38.9645 83.9744H39.0807C39.7714 93.7771 47.0482 93.9282 47.0482 93.9282C47.0482 93.9282 39.0241 94.0847 39.0241 105.412C39.0241 94.0847 31 93.9282 31 93.9282C31 93.9282 38.2738 93.7771 38.9645 83.9744Z" fill="#E1E4E5"/>
<defs>
<linearGradient id="paint0_linear_263_5500" x1="286.738" y1="114.573" x2="348.787" y2="84.2528" gradientUnits="userSpaceOnUse">
<stop stop-color="white"/>
<stop offset="1" stop-color="#EEEEEE"/>
</linearGradient>
<linearGradient id="paint1_linear_263_5500" x1="138.194" y1="78.3173" x2="81.4821" y2="16.5826" gradientUnits="userSpaceOnUse">
<stop stop-color="white"/>
<stop offset="1" stop-color="#EEEEEE"/>
</linearGradient>
<linearGradient id="paint2_linear_263_5500" x1="282.916" y1="105.375" x2="224.933" y2="13.379" gradientUnits="userSpaceOnUse">
<stop stop-color="white"/>
<stop offset="1" stop-color="#EEEEEE"/>
</linearGradient>
</defs>
</svg>
