<svg width="271" height="70" viewBox="0 0 271 70" fill="none" xmlns="http://www.w3.org/2000/svg">
<path d="M27.6302 34.408C28.5742 34.584 29.3502 35.056 29.9582 35.824C30.5662 36.592 30.8702 37.472 30.8702 38.464C30.8702 39.36 30.6462 40.152 30.1982 40.84C29.7662 41.512 29.1342 42.04 28.3022 42.424C27.4702 42.808 26.4862 43 25.3502 43H18.1262V26.248H25.0382C26.1742 26.248 27.1502 26.432 27.9662 26.8C28.7982 27.168 29.4222 27.68 29.8382 28.336C30.2702 28.992 30.4862 29.736 30.4862 30.568C30.4862 31.544 30.2222 32.36 29.6942 33.016C29.1822 33.672 28.4942 34.136 27.6302 34.408ZM21.4862 33.16H24.5582C25.3582 33.16 25.9742 32.984 26.4062 32.632C26.8382 32.264 27.0542 31.744 27.0542 31.072C27.0542 30.4 26.8382 29.88 26.4062 29.512C25.9742 29.144 25.3582 28.96 24.5582 28.96H21.4862V33.16ZM24.8702 40.264C25.6862 40.264 26.3182 40.072 26.7662 39.688C27.2302 39.304 27.4622 38.76 27.4622 38.056C27.4622 37.336 27.2222 36.776 26.7422 36.376C26.2622 35.96 25.6142 35.752 24.7982 35.752H21.4862V40.264H24.8702ZM46.628 36.064C46.628 36.544 46.596 36.976 46.532 37.36H36.812C36.892 38.32 37.228 39.072 37.82 39.616C38.412 40.16 39.14 40.432 40.004 40.432C41.252 40.432 42.14 39.896 42.668 38.824H46.292C45.908 40.104 45.172 41.16 44.084 41.992C42.996 42.808 41.66 43.216 40.076 43.216C38.796 43.216 37.644 42.936 36.62 42.376C35.612 41.8 34.82 40.992 34.244 39.952C33.684 38.912 33.404 37.712 33.404 36.352C33.404 34.976 33.684 33.768 34.244 32.728C34.804 31.688 35.588 30.888 36.596 30.328C37.604 29.768 38.764 29.488 40.076 29.488C41.34 29.488 42.468 29.76 43.46 30.304C44.468 30.848 45.244 31.624 45.788 32.632C46.348 33.624 46.628 34.768 46.628 36.064ZM43.148 35.104C43.132 34.24 42.82 33.552 42.212 33.04C41.604 32.512 40.86 32.248 39.98 32.248C39.148 32.248 38.444 32.504 37.868 33.016C37.308 33.512 36.964 34.208 36.836 35.104H43.148ZM48.9365 36.304C48.9365 34.96 49.2005 33.768 49.7285 32.728C50.2725 31.688 51.0085 30.888 51.9365 30.328C52.8645 29.768 53.8965 29.488 55.0325 29.488C55.8965 29.488 56.7205 29.68 57.5045 30.064C58.2885 30.432 58.9125 30.928 59.3765 31.552V25.24H62.7845V43H59.3765V41.032C58.9605 41.688 58.3765 42.216 57.6245 42.616C56.8725 43.016 56.0005 43.216 55.0085 43.216C53.8885 43.216 52.8645 42.928 51.9365 42.352C51.0085 41.776 50.2725 40.968 49.7285 39.928C49.2005 38.872 48.9365 37.664 48.9365 36.304ZM59.4005 36.352C59.4005 35.536 59.2405 34.84 58.9205 34.264C58.6005 33.672 58.1685 33.224 57.6245 32.92C57.0805 32.6 56.4965 32.44 55.8725 32.44C55.2485 32.44 54.6725 32.592 54.1445 32.896C53.6165 33.2 53.1845 33.648 52.8485 34.24C52.5285 34.816 52.3685 35.504 52.3685 36.304C52.3685 37.104 52.5285 37.808 52.8485 38.416C53.1845 39.008 53.6165 39.464 54.1445 39.784C54.6885 40.104 55.2645 40.264 55.8725 40.264C56.4965 40.264 57.0805 40.112 57.6245 39.808C58.1685 39.488 58.6005 39.04 58.9205 38.464C59.2405 37.872 59.4005 37.168 59.4005 36.352ZM70.1462 25.24V43H66.7862V25.24H70.1462Z" fill="#4553DD"/>
<path d="M80.8749 37.7058V43H74V32.8989C73.9997 32.2763 74.2629 31.6786 74.7325 31.2352L83.1164 23.3449C83.2317 23.2357 83.3693 23.1489 83.521 23.0897C83.6727 23.0305 83.8356 23 84.0001 23C84.1647 23 84.3276 23.0305 84.4793 23.0897C84.631 23.1489 84.7686 23.2357 84.8839 23.3449L93.2675 31.2352C93.7364 31.6766 94 32.2752 94 32.8989V43H87.1251V37.7058C87.1251 36.0811 85.7263 34.7647 84 34.7647C82.2737 34.7647 80.8749 36.0811 80.8749 37.7058Z" fill="#4553DD"/>
<path d="M104.098 29.512C105.682 29.512 106.962 30.016 107.938 31.024C108.914 32.016 109.402 33.408 109.402 35.2V43H106.042V35.656C106.042 34.6 105.778 33.792 105.25 33.232C104.722 32.656 104.002 32.368 103.09 32.368C102.162 32.368 101.426 32.656 100.882 33.232C100.354 33.792 100.09 34.6 100.09 35.656V43H96.7296V29.704H100.09V31.36C100.538 30.784 101.106 30.336 101.794 30.016C102.498 29.68 103.266 29.512 104.098 29.512ZM112.453 36.304C112.453 34.96 112.717 33.768 113.245 32.728C113.789 31.688 114.525 30.888 115.453 30.328C116.381 29.768 117.413 29.488 118.549 29.488C119.413 29.488 120.237 29.68 121.021 30.064C121.805 30.432 122.429 30.928 122.893 31.552V25.24H126.301V43H122.893V41.032C122.477 41.688 121.893 42.216 121.141 42.616C120.389 43.016 119.517 43.216 118.525 43.216C117.405 43.216 116.381 42.928 115.453 42.352C114.525 41.776 113.789 40.968 113.245 39.928C112.717 38.872 112.453 37.664 112.453 36.304ZM122.917 36.352C122.917 35.536 122.757 34.84 122.437 34.264C122.117 33.672 121.685 33.224 121.141 32.92C120.597 32.6 120.013 32.44 119.389 32.44C118.765 32.44 118.189 32.592 117.661 32.896C117.133 33.2 116.701 33.648 116.365 34.24C116.045 34.816 115.885 35.504 115.885 36.304C115.885 37.104 116.045 37.808 116.365 38.416C116.701 39.008 117.133 39.464 117.661 39.784C118.205 40.104 118.781 40.264 119.389 40.264C120.013 40.264 120.597 40.112 121.141 39.808C121.685 39.488 122.117 39.04 122.437 38.464C122.757 37.872 122.917 37.168 122.917 36.352Z" fill="#4553DD"/>
<path d="M155.363 26.32V43H152.627V31.576L147.539 43H145.643L140.531 31.576V43H137.795V26.32H140.747L146.603 39.4L152.435 26.32H155.363ZM158.287 36.328C158.287 35 158.559 33.824 159.103 32.8C159.663 31.776 160.415 30.984 161.359 30.424C162.319 29.848 163.375 29.56 164.527 29.56C165.567 29.56 166.471 29.768 167.239 30.184C168.023 30.584 168.647 31.088 169.111 31.696V29.776H171.871V43H169.111V41.032C168.647 41.656 168.015 42.176 167.215 42.592C166.415 43.008 165.503 43.216 164.479 43.216C163.343 43.216 162.303 42.928 161.359 42.352C160.415 41.76 159.663 40.944 159.103 39.904C158.559 38.848 158.287 37.656 158.287 36.328ZM169.111 36.376C169.111 35.464 168.919 34.672 168.535 34C168.167 33.328 167.679 32.816 167.071 32.464C166.463 32.112 165.807 31.936 165.103 31.936C164.399 31.936 163.743 32.112 163.135 32.464C162.527 32.8 162.031 33.304 161.647 33.976C161.279 34.632 161.095 35.416 161.095 36.328C161.095 37.24 161.279 38.04 161.647 38.728C162.031 39.416 162.527 39.944 163.135 40.312C163.759 40.664 164.415 40.84 165.103 40.84C165.807 40.84 166.463 40.664 167.071 40.312C167.679 39.96 168.167 39.448 168.535 38.776C168.919 38.088 169.111 37.288 169.111 36.376ZM182.377 29.56C183.417 29.56 184.345 29.776 185.161 30.208C185.993 30.64 186.641 31.28 187.105 32.128C187.569 32.976 187.801 34 187.801 35.2V43H185.089V35.608C185.089 34.424 184.793 33.52 184.201 32.896C183.609 32.256 182.801 31.936 181.777 31.936C180.753 31.936 179.937 32.256 179.329 32.896C178.737 33.52 178.441 34.424 178.441 35.608V43H175.705V29.776H178.441V31.288C178.889 30.744 179.457 30.32 180.145 30.016C180.849 29.712 181.593 29.56 182.377 29.56ZM190.618 36.328C190.618 35 190.89 33.824 191.434 32.8C191.994 31.776 192.746 30.984 193.69 30.424C194.65 29.848 195.706 29.56 196.858 29.56C197.898 29.56 198.802 29.768 199.57 30.184C200.354 30.584 200.978 31.088 201.442 31.696V29.776H204.202V43H201.442V41.032C200.978 41.656 200.346 42.176 199.546 42.592C198.746 43.008 197.834 43.216 196.81 43.216C195.674 43.216 194.634 42.928 193.69 42.352C192.746 41.76 191.994 40.944 191.434 39.904C190.89 38.848 190.618 37.656 190.618 36.328ZM201.442 36.376C201.442 35.464 201.25 34.672 200.866 34C200.498 33.328 200.01 32.816 199.402 32.464C198.794 32.112 198.138 31.936 197.434 31.936C196.73 31.936 196.074 32.112 195.466 32.464C194.858 32.8 194.362 33.304 193.978 33.976C193.61 34.632 193.426 35.416 193.426 36.328C193.426 37.24 193.61 38.04 193.978 38.728C194.362 39.416 194.858 39.944 195.466 40.312C196.09 40.664 196.746 40.84 197.434 40.84C198.138 40.84 198.794 40.664 199.402 40.312C200.01 39.96 200.498 39.448 200.866 38.776C201.25 38.088 201.442 37.288 201.442 36.376ZM213.364 29.56C214.388 29.56 215.292 29.768 216.076 30.184C216.876 30.584 217.5 31.088 217.948 31.696V29.776H220.708V43.216C220.708 44.432 220.452 45.512 219.94 46.456C219.428 47.416 218.684 48.168 217.708 48.712C216.748 49.256 215.596 49.528 214.252 49.528C212.46 49.528 210.972 49.104 209.788 48.256C208.604 47.424 207.932 46.288 207.772 44.848H210.484C210.692 45.536 211.132 46.088 211.804 46.504C212.492 46.936 213.308 47.152 214.252 47.152C215.356 47.152 216.244 46.816 216.916 46.144C217.604 45.472 217.948 44.496 217.948 43.216V41.008C217.484 41.632 216.852 42.16 216.052 42.592C215.268 43.008 214.372 43.216 213.364 43.216C212.212 43.216 211.156 42.928 210.196 42.352C209.252 41.76 208.5 40.944 207.94 39.904C207.396 38.848 207.124 37.656 207.124 36.328C207.124 35 207.396 33.824 207.94 32.8C208.5 31.776 209.252 30.984 210.196 30.424C211.156 29.848 212.212 29.56 213.364 29.56ZM217.948 36.376C217.948 35.464 217.756 34.672 217.372 34C217.004 33.328 216.516 32.816 215.908 32.464C215.3 32.112 214.644 31.936 213.94 31.936C213.236 31.936 212.58 32.112 211.972 32.464C211.364 32.8 210.868 33.304 210.484 33.976C210.116 34.632 209.932 35.416 209.932 36.328C209.932 37.24 210.116 38.04 210.484 38.728C210.868 39.416 211.364 39.944 211.972 40.312C212.596 40.664 213.252 40.84 213.94 40.84C214.644 40.84 215.3 40.664 215.908 40.312C216.516 39.96 217.004 39.448 217.372 38.776C217.756 38.088 217.948 37.288 217.948 36.376ZM236.662 36.064C236.662 36.56 236.63 37.008 236.566 37.408H226.462C226.542 38.464 226.934 39.312 227.638 39.952C228.342 40.592 229.206 40.912 230.23 40.912C231.702 40.912 232.742 40.296 233.35 39.064H236.302C235.902 40.28 235.174 41.28 234.118 42.064C233.078 42.832 231.782 43.216 230.23 43.216C228.966 43.216 227.83 42.936 226.822 42.376C225.83 41.8 225.046 41 224.47 39.976C223.91 38.936 223.63 37.736 223.63 36.376C223.63 35.016 223.902 33.824 224.446 32.8C225.006 31.76 225.782 30.96 226.774 30.4C227.782 29.84 228.934 29.56 230.23 29.56C231.478 29.56 232.59 29.832 233.566 30.376C234.542 30.92 235.302 31.688 235.846 32.68C236.39 33.656 236.662 34.784 236.662 36.064ZM233.806 35.2C233.79 34.192 233.43 33.384 232.726 32.776C232.022 32.168 231.15 31.864 230.11 31.864C229.166 31.864 228.358 32.168 227.686 32.776C227.014 33.368 226.614 34.176 226.486 35.2H233.806ZM242.33 31.696C242.73 31.024 243.258 30.504 243.914 30.136C244.586 29.752 245.378 29.56 246.29 29.56V32.392H245.594C244.522 32.392 243.706 32.664 243.146 33.208C242.602 33.752 242.33 34.696 242.33 36.04V43H239.594V29.776H242.33V31.696Z" fill="#FF7C33"/>
</svg>
