<svg width="144" height="68" viewBox="0 0 144 68" fill="none" xmlns="http://www.w3.org/2000/svg">
<path d="M27.6302 33.408C28.5742 33.584 29.3502 34.056 29.9582 34.824C30.5662 35.592 30.8702 36.472 30.8702 37.464C30.8702 38.36 30.6462 39.152 30.1982 39.84C29.7662 40.512 29.1342 41.04 28.3022 41.424C27.4702 41.808 26.4862 42 25.3502 42H18.1262V25.248H25.0382C26.1742 25.248 27.1502 25.432 27.9662 25.8C28.7982 26.168 29.4222 26.68 29.8382 27.336C30.2702 27.992 30.4862 28.736 30.4862 29.568C30.4862 30.544 30.2222 31.36 29.6942 32.016C29.1822 32.672 28.4942 33.136 27.6302 33.408ZM21.4862 32.16H24.5582C25.3582 32.16 25.9742 31.984 26.4062 31.632C26.8382 31.264 27.0542 30.744 27.0542 30.072C27.0542 29.4 26.8382 28.88 26.4062 28.512C25.9742 28.144 25.3582 27.96 24.5582 27.96H21.4862V32.16ZM24.8702 39.264C25.6862 39.264 26.3182 39.072 26.7662 38.688C27.2302 38.304 27.4622 37.76 27.4622 37.056C27.4622 36.336 27.2222 35.776 26.7422 35.376C26.2622 34.96 25.6142 34.752 24.7982 34.752H21.4862V39.264H24.8702ZM46.628 35.064C46.628 35.544 46.596 35.976 46.532 36.36H36.812C36.892 37.32 37.228 38.072 37.82 38.616C38.412 39.16 39.14 39.432 40.004 39.432C41.252 39.432 42.14 38.896 42.668 37.824H46.292C45.908 39.104 45.172 40.16 44.084 40.992C42.996 41.808 41.66 42.216 40.076 42.216C38.796 42.216 37.644 41.936 36.62 41.376C35.612 40.8 34.82 39.992 34.244 38.952C33.684 37.912 33.404 36.712 33.404 35.352C33.404 33.976 33.684 32.768 34.244 31.728C34.804 30.688 35.588 29.888 36.596 29.328C37.604 28.768 38.764 28.488 40.076 28.488C41.34 28.488 42.468 28.76 43.46 29.304C44.468 29.848 45.244 30.624 45.788 31.632C46.348 32.624 46.628 33.768 46.628 35.064ZM43.148 34.104C43.132 33.24 42.82 32.552 42.212 32.04C41.604 31.512 40.86 31.248 39.98 31.248C39.148 31.248 38.444 31.504 37.868 32.016C37.308 32.512 36.964 33.208 36.836 34.104H43.148ZM48.9365 35.304C48.9365 33.96 49.2005 32.768 49.7285 31.728C50.2725 30.688 51.0085 29.888 51.9365 29.328C52.8645 28.768 53.8965 28.488 55.0325 28.488C55.8965 28.488 56.7205 28.68 57.5045 29.064C58.2885 29.432 58.9125 29.928 59.3765 30.552V24.24H62.7845V42H59.3765V40.032C58.9605 40.688 58.3765 41.216 57.6245 41.616C56.8725 42.016 56.0005 42.216 55.0085 42.216C53.8885 42.216 52.8645 41.928 51.9365 41.352C51.0085 40.776 50.2725 39.968 49.7285 38.928C49.2005 37.872 48.9365 36.664 48.9365 35.304ZM59.4005 35.352C59.4005 34.536 59.2405 33.84 58.9205 33.264C58.6005 32.672 58.1685 32.224 57.6245 31.92C57.0805 31.6 56.4965 31.44 55.8725 31.44C55.2485 31.44 54.6725 31.592 54.1445 31.896C53.6165 32.2 53.1845 32.648 52.8485 33.24C52.5285 33.816 52.3685 34.504 52.3685 35.304C52.3685 36.104 52.5285 36.808 52.8485 37.416C53.1845 38.008 53.6165 38.464 54.1445 38.784C54.6885 39.104 55.2645 39.264 55.8725 39.264C56.4965 39.264 57.0805 39.112 57.6245 38.808C58.1685 38.488 58.6005 38.04 58.9205 37.464C59.2405 36.872 59.4005 36.168 59.4005 35.352ZM70.1462 24.24V42H66.7862V24.24H70.1462Z" fill="#4553DD"/>
<path d="M80.8749 36.7058V42H74V31.8989C73.9997 31.2763 74.2629 30.6786 74.7325 30.2352L83.1164 22.3449C83.2317 22.2357 83.3693 22.1489 83.521 22.0897C83.6727 22.0305 83.8356 22 84.0001 22C84.1647 22 84.3276 22.0305 84.4793 22.0897C84.631 22.1489 84.7686 22.2357 84.8839 22.3449L93.2675 30.2352C93.7364 30.6766 94 31.2752 94 31.8989V42H87.1251V36.7058C87.1251 35.0811 85.7263 33.7647 84 33.7647C82.2737 33.7647 80.8749 35.0811 80.8749 36.7058Z" fill="#4553DD"/>
<path d="M104.098 28.512C105.682 28.512 106.962 29.016 107.938 30.024C108.914 31.016 109.402 32.408 109.402 34.2V42H106.042V34.656C106.042 33.6 105.778 32.792 105.25 32.232C104.722 31.656 104.002 31.368 103.09 31.368C102.162 31.368 101.426 31.656 100.882 32.232C100.354 32.792 100.09 33.6 100.09 34.656V42H96.7296V28.704H100.09V30.36C100.538 29.784 101.106 29.336 101.794 29.016C102.498 28.68 103.266 28.512 104.098 28.512ZM112.453 35.304C112.453 33.96 112.717 32.768 113.245 31.728C113.789 30.688 114.525 29.888 115.453 29.328C116.381 28.768 117.413 28.488 118.549 28.488C119.413 28.488 120.237 28.68 121.021 29.064C121.805 29.432 122.429 29.928 122.893 30.552V24.24H126.301V42H122.893V40.032C122.477 40.688 121.893 41.216 121.141 41.616C120.389 42.016 119.517 42.216 118.525 42.216C117.405 42.216 116.381 41.928 115.453 41.352C114.525 40.776 113.789 39.968 113.245 38.928C112.717 37.872 112.453 36.664 112.453 35.304ZM122.917 35.352C122.917 34.536 122.757 33.84 122.437 33.264C122.117 32.672 121.685 32.224 121.141 31.92C120.597 31.6 120.013 31.44 119.389 31.44C118.765 31.44 118.189 31.592 117.661 31.896C117.133 32.2 116.701 32.648 116.365 33.24C116.045 33.816 115.885 34.504 115.885 35.304C115.885 36.104 116.045 36.808 116.365 37.416C116.701 38.008 117.133 38.464 117.661 38.784C118.205 39.104 118.781 39.264 119.389 39.264C120.013 39.264 120.597 39.112 121.141 38.808C121.685 38.488 122.117 38.04 122.437 37.464C122.757 36.872 122.917 36.168 122.917 35.352Z" fill="#4553DD"/>
</svg>
