<svg width="144" height="40" viewBox="0 0 144 40" fill="none" xmlns="http://www.w3.org/2000/svg">
<path d="M27.6302 19.408C28.5742 19.584 29.3502 20.056 29.9582 20.824C30.5662 21.592 30.8702 22.472 30.8702 23.464C30.8702 24.36 30.6462 25.152 30.1982 25.84C29.7662 26.512 29.1342 27.04 28.3022 27.424C27.4702 27.808 26.4862 28 25.3502 28H18.1262V11.248H25.0382C26.1742 11.248 27.1502 11.432 27.9662 11.8C28.7982 12.168 29.4222 12.68 29.8382 13.336C30.2702 13.992 30.4862 14.736 30.4862 15.568C30.4862 16.544 30.2222 17.36 29.6942 18.016C29.1822 18.672 28.4942 19.136 27.6302 19.408ZM21.4862 18.16H24.5582C25.3582 18.16 25.9742 17.984 26.4062 17.632C26.8382 17.264 27.0542 16.744 27.0542 16.072C27.0542 15.4 26.8382 14.88 26.4062 14.512C25.9742 14.144 25.3582 13.96 24.5582 13.96H21.4862V18.16ZM24.8702 25.264C25.6862 25.264 26.3182 25.072 26.7662 24.688C27.2302 24.304 27.4622 23.76 27.4622 23.056C27.4622 22.336 27.2222 21.776 26.7422 21.376C26.2622 20.96 25.6142 20.752 24.7982 20.752H21.4862V25.264H24.8702ZM46.628 21.064C46.628 21.544 46.596 21.976 46.532 22.36H36.812C36.892 23.32 37.228 24.072 37.82 24.616C38.412 25.16 39.14 25.432 40.004 25.432C41.252 25.432 42.14 24.896 42.668 23.824H46.292C45.908 25.104 45.172 26.16 44.084 26.992C42.996 27.808 41.66 28.216 40.076 28.216C38.796 28.216 37.644 27.936 36.62 27.376C35.612 26.8 34.82 25.992 34.244 24.952C33.684 23.912 33.404 22.712 33.404 21.352C33.404 19.976 33.684 18.768 34.244 17.728C34.804 16.688 35.588 15.888 36.596 15.328C37.604 14.768 38.764 14.488 40.076 14.488C41.34 14.488 42.468 14.76 43.46 15.304C44.468 15.848 45.244 16.624 45.788 17.632C46.348 18.624 46.628 19.768 46.628 21.064ZM43.148 20.104C43.132 19.24 42.82 18.552 42.212 18.04C41.604 17.512 40.86 17.248 39.98 17.248C39.148 17.248 38.444 17.504 37.868 18.016C37.308 18.512 36.964 19.208 36.836 20.104H43.148ZM48.9365 21.304C48.9365 19.96 49.2005 18.768 49.7285 17.728C50.2725 16.688 51.0085 15.888 51.9365 15.328C52.8645 14.768 53.8965 14.488 55.0325 14.488C55.8965 14.488 56.7205 14.68 57.5045 15.064C58.2885 15.432 58.9125 15.928 59.3765 16.552V10.24H62.7845V28H59.3765V26.032C58.9605 26.688 58.3765 27.216 57.6245 27.616C56.8725 28.016 56.0005 28.216 55.0085 28.216C53.8885 28.216 52.8645 27.928 51.9365 27.352C51.0085 26.776 50.2725 25.968 49.7285 24.928C49.2005 23.872 48.9365 22.664 48.9365 21.304ZM59.4005 21.352C59.4005 20.536 59.2405 19.84 58.9205 19.264C58.6005 18.672 58.1685 18.224 57.6245 17.92C57.0805 17.6 56.4965 17.44 55.8725 17.44C55.2485 17.44 54.6725 17.592 54.1445 17.896C53.6165 18.2 53.1845 18.648 52.8485 19.24C52.5285 19.816 52.3685 20.504 52.3685 21.304C52.3685 22.104 52.5285 22.808 52.8485 23.416C53.1845 24.008 53.6165 24.464 54.1445 24.784C54.6885 25.104 55.2645 25.264 55.8725 25.264C56.4965 25.264 57.0805 25.112 57.6245 24.808C58.1685 24.488 58.6005 24.04 58.9205 23.464C59.2405 22.872 59.4005 22.168 59.4005 21.352ZM70.1462 10.24V28H66.7862V10.24H70.1462Z" fill="#4553DD"/>
<path d="M80.8749 22.7058V28H74V17.8989C73.9997 17.2763 74.2629 16.6786 74.7325 16.2352L83.1164 8.34493C83.2317 8.2357 83.3693 8.14894 83.521 8.08972C83.6727 8.0305 83.8356 8 84.0001 8C84.1647 8 84.3276 8.0305 84.4793 8.08972C84.631 8.14894 84.7686 8.2357 84.8839 8.34493L93.2675 16.2352C93.7364 16.6766 94 17.2752 94 17.8989V28H87.1251V22.7058C87.1251 21.0811 85.7263 19.7647 84 19.7647C82.2737 19.7647 80.8749 21.0811 80.8749 22.7058Z" fill="#4553DD"/>
<path d="M104.098 14.512C105.682 14.512 106.962 15.016 107.938 16.024C108.914 17.016 109.402 18.408 109.402 20.2V28H106.042V20.656C106.042 19.6 105.778 18.792 105.25 18.232C104.722 17.656 104.002 17.368 103.09 17.368C102.162 17.368 101.426 17.656 100.882 18.232C100.354 18.792 100.09 19.6 100.09 20.656V28H96.7296V14.704H100.09V16.36C100.538 15.784 101.106 15.336 101.794 15.016C102.498 14.68 103.266 14.512 104.098 14.512ZM112.453 21.304C112.453 19.96 112.717 18.768 113.245 17.728C113.789 16.688 114.525 15.888 115.453 15.328C116.381 14.768 117.413 14.488 118.549 14.488C119.413 14.488 120.237 14.68 121.021 15.064C121.805 15.432 122.429 15.928 122.893 16.552V10.24H126.301V28H122.893V26.032C122.477 26.688 121.893 27.216 121.141 27.616C120.389 28.016 119.517 28.216 118.525 28.216C117.405 28.216 116.381 27.928 115.453 27.352C114.525 26.776 113.789 25.968 113.245 24.928C112.717 23.872 112.453 22.664 112.453 21.304ZM122.917 21.352C122.917 20.536 122.757 19.84 122.437 19.264C122.117 18.672 121.685 18.224 121.141 17.92C120.597 17.6 120.013 17.44 119.389 17.44C118.765 17.44 118.189 17.592 117.661 17.896C117.133 18.2 116.701 18.648 116.365 19.24C116.045 19.816 115.885 20.504 115.885 21.304C115.885 22.104 116.045 22.808 116.365 23.416C116.701 24.008 117.133 24.464 117.661 24.784C118.205 25.104 118.781 25.264 119.389 25.264C120.013 25.264 120.597 25.112 121.141 24.808C121.685 24.488 122.117 24.04 122.437 23.464C122.757 22.872 122.917 22.168 122.917 21.352Z" fill="#4553DD"/>
</svg>
